<svg xmlns="http://www.w3.org/2000/svg" xmlns:xlink="http://www.w3.org/1999/xlink" width="1131.962" height="473.192" viewBox="0 0 848.971 354.894"><path d="M0 354.894h848.971V0H0z" fill="#fff"/><path d="M58.466 179.206h54.324V70.712H58.466z" fill="#fff"/><path stroke-width=".8" stroke-linejoin="round" fill="none" stroke="#000" d="M60.935 179.206v3.5M110.32 179.206v3.5M58.466 139.413h-3.5"/><symbol id="a"><path transform="matrix(.001 0 0 .001 -.077 .013)" d="M108 729h387v-83H198V467c14 5 29 9 43 11s29 4 43 4c81 0 145-23 193-67 48-45 72-105 72-181 0-79-25-140-74-183S357-13 269-13c-31 0-62 3-94 7-32 5-64 12-98 23v99c29-16 59-28 91-36 31-8 64-11 99-11 56 0 101 14 134 44 32 30 49 70 49 121 0 50-17 90-49 120-33 30-78 45-134 45-26 0-53-3-79-9s-53-15-80-27v366z"/></symbol><symbol id="b"><path transform="matrix(.001 0 0 .001 -.066 .013)" d="M318 664c-51 0-89-25-115-75s-38-125-38-225 12-175 38-225 64-75 115-75 89 25 115 75c25 50 38 125 38 225s-13 175-38 225c-26 50-64 75-115 75zm0 78c81 0 143-33 187-97 43-65 65-159 65-281 0-123-22-217-65-281-44-64-106-96-188-96S173 19 130 83 66 241 66 364c0 122 21 216 64 281 43 64 106 97 188 97z"/></symbol><use xlink:href="#a" transform="matrix(14 0 0 -14 34.731 144.916)"/><use xlink:href="#b" transform="matrix(14 0 0 -14 43.481 144.916)"/><path stroke-width=".8" stroke-linejoin="round" fill="none" stroke="#000" d="M58.466 96.9h-3.5"/><symbol id="c"><path transform="translate(-.11) scale(.001)" d="M124 83h161v556l-175-35v90l174 35h99V83h161V0H124v83z"/></symbol><use xlink:href="#c" transform="matrix(14 0 0 -14 26.287 102.22)"/><use xlink:href="#b" transform="matrix(14 0 0 -14 34.575 102.402)"/><use xlink:href="#b" transform="matrix(14 0 0 -14 43.479 102.402)"/><symbol id="d"><path transform="translate(-.098) scale(.001)" d="M98 729h99V83h355V0H98v729z"/></symbol><symbol id="e"><path transform="matrix(.001 0 0 .001 -.06 .013)" d="M343 275c-73 0-123-9-151-25-28-17-42-45-42-85 0-32 10-58 31-76 21-19 50-28 86-28 50 0 90 17 120 53 30 35 45 82 45 141v20h-89zm179 37V0h-90v83c-21-34-47-58-77-73s-68-23-112-23c-56 0-101 15-134 46s-49 73-49 126c0 61 20 107 62 139 41 31 102 47 184 47h126v9c0 41-14 73-41 96-27 22-65 34-114 34-32 0-62-4-92-12s-58-19-85-33v83c32 12 64 22 95 28s61 10 91 10c79 0 138-21 177-62s59-103 59-186z"/></symbol><symbol id="f"><path transform="translate(-.027) scale(.001)" d="M183 702V547h185v-70H183V180c0-45 6-74 18-86 12-13 37-19 75-19h92V0h-92c-70 0-118 13-144 39s-39 73-39 141v297H27v70h66v155h90z"/></symbol><symbol id="g"><path transform="matrix(.001 0 0 .001 -.055 .013)" d="M562 296v-44H149c4-62 22-110 56-142 33-32 79-48 139-48 34 0 68 4 100 12s65 21 97 39V28c-32-14-65-25-99-31s-69-10-103-10c-88 0-157 25-208 75S55 181 55 268c0 89 24 160 72 213 48 52 114 79 196 79 74 0 132-24 175-71 42-48 64-112 64-193zm-90 26c-1 49-15 88-41 118-27 29-63 44-107 44-50 0-90-15-120-43s-48-68-52-119h320z"/></symbol><symbol id="h"><path transform="translate(-.091) scale(.001)" d="M549 330V0h-90v327c0 52-11 90-31 116s-50 39-90 39c-49 0-87-16-115-47s-42-73-42-126V0H91v547h90v-85c21 32 46 57 76 73 29 16 63 25 101 25 62 0 110-20 142-59s49-96 49-171z"/></symbol><symbol id="i"><path transform="matrix(.001 0 0 .001 -.055 .013)" d="M488 526v-84c-26 14-51 24-77 31s-51 11-77 11c-58 0-104-19-136-56s-48-89-48-155c0-67 16-119 48-156s78-55 136-55c26 0 51 3 77 10s51 18 77 32V21C462 9 436 0 410-5c-27-5-56-8-86-8-82 0-148 25-196 77-49 51-73 121-73 209 0 89 24 159 73 210s116 77 202 77c28 0 55-3 81-9s52-14 77-25z"/></symbol><symbol id="j"><path transform="matrix(.001 0 0 .001 -.03 .207)" d="M322-50c-26-64-51-107-75-127s-56-30-96-30H79v75h53c24 0 43 6 57 18s29 39 46 83l16 40L30 547h95l171-428 171 428h95L322-50z"/></symbol><use xlink:href="#d" transform="matrix(0 -14 -14 0 17.84 151.25)"/><use xlink:href="#e" transform="matrix(0 -14 -14 0 18.023 143.985)"/><use xlink:href="#f" transform="matrix(0 -14 -14 0 17.84 135.865)"/><use xlink:href="#g" transform="matrix(0 -14 -14 0 18.023 129.985)"/><use xlink:href="#h" transform="matrix(0 -14 -14 0 17.84 120.87)"/><use xlink:href="#i" transform="matrix(0 -14 -14 0 18.023 112.499)"/><use xlink:href="#j" transform="matrix(0 -14 -14 0 20.739 105.149)"/><clipPath id="k"><path transform="matrix(1 0 0 -1 0 354.894)" d="M58.466 175.688h54.324v108.494H58.466z"/></clipPath><g clip-path="url(#k)"><path stroke-width="1.5" stroke-linecap="square" stroke-linejoin="round" fill="none" stroke="#000" d="M60.935 174.274h5.487l5.487-1.7 5.488.85 5.487-4.251 5.487-4.252 5.488-28.909 5.487-25.508 5.487 31.46 5.487-66.32"/></g><clipPath id="l"><path transform="matrix(1 0 0 -1 0 354.894)" d="M58.466 175.688h54.324v108.494H58.466z"/></clipPath><g clip-path="url(#l)"><path stroke-width="1.5" stroke-linecap="square" stroke-linejoin="round" fill="none" stroke="red" d="m60.935 173.424 5.487-17.005 5.487 16.155 5.488 1.7 5.487-.85 5.487-16.155 5.488 12.754 5.487-11.904 5.487 2.551 5.487-5.952"/></g><path stroke-width=".8" stroke-linecap="square" stroke-miterlimit="10" fill="none" stroke="#000" d="M58.466 179.206V70.712M58.466 179.206h54.324"/><symbol id="m"><path transform="matrix(.001 0 0 .001 -.056 .128)" d="M394 662c-72 0-129-27-171-80-42-54-63-126-63-218s21-165 63-218c42-54 99-80 171-80 71 0 128 26 170 80 42 53 63 126 63 218s-21 164-63 218c-42 53-99 80-170 80zM532 13l130-141H543L435-11c-11 0-19-1-25-1s-11-1-16-1C291-13 209 21 148 89c-62 68-92 159-92 275 0 115 30 207 92 275 61 68 143 103 246 103 102 0 183-35 245-103 61-68 92-160 92-275 0-85-17-158-51-218S596 41 532 13z"/></symbol><symbol id="n"><path transform="matrix(.001 0 0 .001 -.085 .013)" d="M85 216v331h90V219c0-52 10-90 30-116s50-39 91-39c48 0 87 15 115 46s42 73 42 127v310h90V0h-90v84c-22-34-48-58-76-74-29-15-62-23-100-23-63 0-111 19-143 58-33 38-49 95-49 171zm226 344z"/></symbol><symbol id="o"><path transform="matrix(.001 0 0 .001 -.055 .013)" d="M306 484c-48 0-86-19-114-57s-42-89-42-154c0-66 13-117 41-155s66-56 115-56c48 0 86 18 114 56s42 89 42 155c0 64-14 116-42 154s-66 57-114 57zm0 76c78 0 139-26 184-76 44-51 67-121 67-211s-23-160-67-210c-45-51-106-76-184-76-79 0-141 25-185 76-44 50-66 120-66 210s22 160 66 211c44 50 106 76 185 76z"/></symbol><symbol id="p"><path transform="matrix(.001 0 0 .001 -.054 .013)" d="M443 531v-85c-26 12-52 22-79 29-28 6-56 10-85 10-45 0-79-7-101-21s-33-34-33-61c0-21 8-37 24-49s48-24 96-34l31-7c64-14 109-34 136-58 26-25 40-60 40-104 0-51-20-91-60-120-40-30-96-44-166-44-30 0-60 3-92 8S89 8 54 20v93c33-18 66-31 98-39 32-9 64-13 96-13 42 0 75 7 98 21 22 14 34 35 34 62 0 24-9 43-25 56s-52 26-108 38l-31 7c-56 12-97 30-121 54-25 24-37 57-37 100 0 51 18 91 54 119s88 42 156 42c33 0 64-3 94-8 29-5 56-12 81-21z"/></symbol><use xlink:href="#m" transform="matrix(16.8 0 0 -16.8 56.74 66.862)"/><use xlink:href="#n" transform="matrix(16.8 0 0 -16.8 70.45 64.93)"/><use xlink:href="#o" transform="matrix(16.8 0 0 -16.8 80.596 64.93)"/><use xlink:href="#f" transform="matrix(16.8 0 0 -16.8 90.408 64.712)"/><use xlink:href="#g" transform="matrix(16.8 0 0 -16.8 97.464 64.93)"/><use xlink:href="#p" transform="matrix(16.8 0 0 -16.8 107.779 64.93)"/><path d="M161.46 179.206h54.324V70.712H161.46z" fill="#fff"/><path stroke-width=".8" stroke-linejoin="round" fill="none" stroke="#000" d="M163.929 179.206v3.5M213.315 179.206v3.5M161.46 140.292h-3.5"/><use xlink:href="#a" transform="matrix(14 0 0 -14 137.725 145.795)"/><use xlink:href="#b" transform="matrix(14 0 0 -14 146.475 145.795)"/><path stroke-width=".8" stroke-linejoin="round" fill="none" stroke="#000" d="M161.46 98.85h-3.5"/><use xlink:href="#c" transform="matrix(14 0 0 -14 129.281 104.171)"/><use xlink:href="#b" transform="matrix(14 0 0 -14 137.569 104.353)"/><use xlink:href="#b" transform="matrix(14 0 0 -14 146.473 104.353)"/><clipPath id="q"><path transform="matrix(1 0 0 -1 0 354.894)" d="M161.46 175.688h54.324v108.494H161.46z"/></clipPath><g clip-path="url(#q)"><path stroke-width="1.5" stroke-linecap="square" stroke-linejoin="round" fill="none" stroke="#000" d="M163.929 173.445H174.904l5.487.83 5.487-4.56 5.487-4.558 5.488-19.892 5.487-18.234 5.487 15.748 5.488-67.135"/></g><clipPath id="r"><path transform="matrix(1 0 0 -1 0 354.894)" d="M161.46 175.688h54.324v108.494H161.46z"/></clipPath><g clip-path="url(#r)"><path stroke-width="1.5" stroke-linecap="square" stroke-linejoin="round" fill="none" stroke="red" d="m163.929 173.445 5.487-13.26 5.488 12.432 5.487.828 5.487.83 5.487-14.09 5.488 9.116 5.487-9.946 5.487 2.487 5.488-7.46"/></g><path stroke-width=".8" stroke-linecap="square" stroke-miterlimit="10" fill="none" stroke="#000" d="M161.46 179.206V70.712M161.46 179.206h54.324"/><symbol id="s"><path transform="translate(-.098) scale(.001)" d="M98 729h99V430h358v299h99V0h-99v347H197V0H98v729z"/></symbol><symbol id="t"><path transform="translate(-.091) scale(.001)" d="M520 442c22 40 49 69 80 89 31 19 68 29 111 29 56 0 100-20 131-60s47-97 47-170V0h-90v327c0 52-10 91-28 117-19 25-47 38-85 38-47 0-84-16-111-47s-40-73-40-126V0h-90v327c0 52-10 91-28 117-19 25-48 38-86 38-46 0-83-16-110-47s-40-73-40-126V0H91v547h90v-85c20 33 45 58 74 74 28 16 62 24 102 24s73-10 101-30 48-50 62-88z"/></symbol><use xlink:href="#s" transform="matrix(16.8 0 0 -16.8 165.534 64.712)"/><use xlink:href="#o" transform="matrix(16.8 0 0 -16.8 177.445 64.93)"/><use xlink:href="#t" transform="matrix(16.8 0 0 -16.8 188.331 64.712)"/><use xlink:href="#g" transform="matrix(16.8 0 0 -16.8 204.09 64.93)"/><path d="M264.454 179.206h54.324V70.712h-54.324z" fill="#fff"/><path stroke-width=".8" stroke-linejoin="round" fill="none" stroke="#000" d="M266.923 179.206v3.5M316.309 179.206v3.5M264.454 140.575h-3.5"/><use xlink:href="#a" transform="matrix(14 0 0 -14 240.72 146.078)"/><use xlink:href="#b" transform="matrix(14 0 0 -14 249.47 146.078)"/><path stroke-width=".8" stroke-linejoin="round" fill="none" stroke="#000" d="M264.454 99.48h-3.5"/><use xlink:href="#c" transform="matrix(14 0 0 -14 232.275 104.8)"/><use xlink:href="#b" transform="matrix(14 0 0 -14 240.563 104.982)"/><use xlink:href="#b" transform="matrix(14 0 0 -14 249.467 104.982)"/><clipPath id="u"><path transform="matrix(1 0 0 -1 0 354.894)" d="M264.454 175.688h54.324v108.494h-54.324z"/></clipPath><g clip-path="url(#u)"><path stroke-width="1.5" stroke-linecap="square" stroke-linejoin="round" fill="none" stroke="#000" d="m266.923 173.452 5.487.822H283.385l5.487-4.52 5.488-4.52 5.487-28.768 5.487-13.151 5.487 23.014 5.488-70.685"/></g><clipPath id="v"><path transform="matrix(1 0 0 -1 0 354.894)" d="M264.454 175.688h54.324v108.494h-54.324z"/></clipPath><g clip-path="url(#v)"><path stroke-width="1.5" stroke-linecap="square" stroke-linejoin="round" fill="none" stroke="red" d="m266.923 174.274 5.487-16.438 5.488 15.616 5.487.822h5.487l5.488-15.616 5.487 12.329 5.487-23.836 5.487 16.438 5.488-10.685"/></g><path stroke-width=".8" stroke-linecap="square" stroke-miterlimit="10" fill="none" stroke="#000" d="M264.454 179.206V70.712M264.454 179.206h54.324"/><symbol id="w"><path transform="translate(-.098) scale(.001)" d="M197 648V374h124c46 0 81 11 106 35s38 58 38 102-13 77-38 101-60 36-106 36H197zm-99 81h223c81 0 143-19 185-56s63-91 63-162c0-72-21-127-63-163-42-37-104-55-185-55H197V0H98v729z"/></symbol><symbol id="x"><path transform="translate(-.091) scale(.001)" d="M411 463c-10 6-21 10-33 13-12 2-25 4-39 4-51 0-90-17-117-50-28-33-41-80-41-142V0H91v547h90v-85c18 33 43 58 73 74s67 24 111 24c6 0 13-1 21-1 7-1 15-2 25-4v-92z"/></symbol><symbol id="y"><path transform="translate(-.023) scale(.001)" d="M371 760v-75h-86c-32 0-55-7-67-20-13-13-19-36-19-70v-48h148v-70H199V0h-90v477H23v70h86v38c0 60 14 105 42 133s73 42 135 42h85z"/></symbol><symbol id="z"><path transform="translate(-.094) scale(.001)" d="M94 760h90V0H94v760z"/></symbol><symbol id="A"><path transform="translate(-.094) scale(.001)" d="M94 547h90V0H94v547zm0 213h90V646H94v114z"/></symbol><use xlink:href="#w" transform="matrix(16.8 0 0 -16.8 258.817 64.712)"/><use xlink:href="#o" transform="matrix(16.8 0 0 -16.8 267.631 64.93)"/><use xlink:href="#x" transform="matrix(16.8 0 0 -16.8 278.518 64.712)"/><use xlink:href="#f" transform="matrix(16.8 0 0 -16.8 284.347 64.712)"/><use xlink:href="#y" transform="matrix(16.8 0 0 -16.8 290.866 64.712)"/><use xlink:href="#o" transform="matrix(16.8 0 0 -16.8 297.317 64.93)"/><use xlink:href="#z" transform="matrix(16.8 0 0 -16.8 308.254 64.712)"/><use xlink:href="#A" transform="matrix(16.8 0 0 -16.8 312.924 64.712)"/><use xlink:href="#o" transform="matrix(16.8 0 0 -16.8 316.94 64.93)"/><path d="M367.448 179.206h54.324V70.712h-54.324z" fill="#fff"/><path stroke-width=".8" stroke-linejoin="round" fill="none" stroke="#000" d="M369.917 179.206v3.5M419.303 179.206v3.5M367.448 134.056h-3.5"/><use xlink:href="#a" transform="matrix(14 0 0 -14 343.713 139.558)"/><use xlink:href="#b" transform="matrix(14 0 0 -14 352.463 139.558)"/><path stroke-width=".8" stroke-linejoin="round" fill="none" stroke="#000" d="M367.448 86.177h-3.5"/><use xlink:href="#c" transform="matrix(14 0 0 -14 335.27 91.497)"/><use xlink:href="#b" transform="matrix(14 0 0 -14 343.557 91.68)"/><use xlink:href="#b" transform="matrix(14 0 0 -14 352.461 91.68)"/><clipPath id="B"><path transform="matrix(1 0 0 -1 0 354.894)" d="M367.448 175.688h54.324v108.494h-54.324z"/></clipPath><g clip-path="url(#B)"><path stroke-width="1.5" stroke-linecap="square" stroke-linejoin="round" fill="none" stroke="#000" d="M369.917 173.317h5.488l5.487.957h5.487l5.487-5.745 5.488-5.746 5.487-26.812 5.487-42.133 5.488 45.006 5.487-63.2"/></g><clipPath id="C"><path transform="matrix(1 0 0 -1 0 354.894)" d="M367.448 175.688h54.324v108.494h-54.324z"/></clipPath><g clip-path="url(#C)"><path stroke-width="1.5" stroke-linecap="square" stroke-linejoin="round" fill="none" stroke="red" d="m369.917 174.274 5.488-15.321 5.487 13.406 5.487 1.915h5.487l5.488-16.279 5.487 11.491 5.487-10.533 5.488-4.788 5.487 7.66"/></g><path stroke-width=".8" stroke-linecap="square" stroke-miterlimit="10" fill="none" stroke="#000" d="M367.448 179.206V70.712M367.448 179.206h54.324"/><symbol id="D"><path transform="translate(-.008) scale(.001)" d="M342 632 208 269h268L342 632zm-56 97h112L676 0H573l-66 187H178L112 0H8l278 729z"/></symbol><use xlink:href="#D" transform="matrix(16.8 0 0 -16.8 360.924 64.712)"/><use xlink:href="#i" transform="matrix(16.8 0 0 -16.8 372.924 64.93)"/><use xlink:href="#i" transform="matrix(16.8 0 0 -16.8 382.164 64.93)"/><use xlink:href="#o" transform="matrix(16.8 0 0 -16.8 391.404 64.93)"/><use xlink:href="#n" transform="matrix(16.8 0 0 -16.8 402.19 64.93)"/><use xlink:href="#h" transform="matrix(16.8 0 0 -16.8 412.941 64.712)"/><use xlink:href="#f" transform="matrix(16.8 0 0 -16.8 422.517 64.712)"/><path d="M470.442 179.206h54.324V70.712h-54.324z" fill="#fff"/><path stroke-width=".8" stroke-linejoin="round" fill="none" stroke="#000" d="M472.911 179.206v3.5M522.297 179.206v3.5M470.442 140.595h-3.5"/><use xlink:href="#a" transform="matrix(14 0 0 -14 446.708 146.098)"/><use xlink:href="#b" transform="matrix(14 0 0 -14 455.458 146.098)"/><path stroke-width=".8" stroke-linejoin="round" fill="none" stroke="#000" d="M470.442 100.502h-3.5"/><use xlink:href="#c" transform="matrix(14 0 0 -14 438.263 105.822)"/><use xlink:href="#b" transform="matrix(14 0 0 -14 446.551 106.004)"/><use xlink:href="#b" transform="matrix(14 0 0 -14 455.455 106.004)"/><clipPath id="E"><path transform="matrix(1 0 0 -1 0 354.894)" d="M470.442 175.688h54.324v108.494h-54.324z"/></clipPath><g clip-path="url(#E)"><path stroke-width="1.5" stroke-linecap="square" stroke-linejoin="round" fill="none" stroke="#000" d="m472.911 173.472 5.488.802 5.487-1.604 5.487 1.604 5.488-4.01 5.487-4.009 5.487-24.056 5.487-14.434 5.488 17.642 5.487-69.763"/></g><clipPath id="F"><path transform="matrix(1 0 0 -1 0 354.894)" d="M470.442 175.688h54.324v108.494h-54.324z"/></clipPath><g clip-path="url(#F)"><path stroke-width="1.5" stroke-linecap="square" stroke-linejoin="round" fill="none" stroke="red" d="m472.911 174.274 5.488-13.632 5.487 12.83h5.487l5.488.802 5.487-16.037 5.487 14.433 5.487-44.103 5.488 40.094 5.487-5.613"/></g><path stroke-width=".8" stroke-linecap="square" stroke-miterlimit="10" fill="none" stroke="#000" d="M470.442 179.206V70.712M470.442 179.206h54.324"/><symbol id="G"><path transform="translate(-.098) scale(.001)" d="M197 348V81h158c53 0 92 11 118 33 25 22 38 55 38 101 0 45-13 78-38 100-26 22-65 33-118 33H197zm0 300V428h146c48 0 83 9 107 27s36 45 36 83c0 36-12 64-36 82s-59 28-107 28H197zm-99 81h252c75 0 133-16 174-47 40-32 61-76 61-133 0-45-11-81-32-107s-51-43-91-49c48-11 86-33 113-66 26-33 40-74 40-123 0-66-23-116-67-151C504 17 441 0 360 0H98v729z"/></symbol><use xlink:href="#G" transform="matrix(16.8 0 0 -16.8 483.25 64.712)"/><use xlink:href="#n" transform="matrix(16.8 0 0 -16.8 494.557 64.93)"/><use xlink:href="#j" transform="matrix(16.8 0 0 -16.8 504.284 68.19)"/><path d="M573.436 179.206h54.324V70.712h-54.324z" fill="#fff"/><path stroke-width=".8" stroke-linejoin="round" fill="none" stroke="#000" d="M575.905 179.206v3.5M625.291 179.206v3.5M573.436 177.86h-3.5"/><use xlink:href="#b" transform="matrix(14 0 0 -14 558.454 183.363)"/><path stroke-width=".8" stroke-linejoin="round" fill="none" stroke="#000" d="M573.436 106.13h-3.5"/><symbol id="H"><path transform="translate(-.073) scale(.001)" d="M192 83h344V0H73v83c37 38 88 90 153 156 64 65 105 107 122 126 32 35 54 65 66 90 12 24 19 49 19 73 0 38-14 70-41 94s-62 37-106 37c-31 0-64-6-98-16-34-11-71-27-110-49v100c40 16 77 28 111 36s66 12 95 12c75 0 135-19 180-57s68-88 68-151c0-30-6-59-17-85-11-27-31-59-61-95-8-10-34-37-78-82S271 164 192 83z"/></symbol><use xlink:href="#H" transform="matrix(14 0 0 -14 540.74 111.45)"/><use xlink:href="#b" transform="matrix(14 0 0 -14 549.545 111.632)"/><use xlink:href="#b" transform="matrix(14 0 0 -14 558.45 111.632)"/><clipPath id="I"><path transform="matrix(1 0 0 -1 0 354.894)" d="M573.436 175.688h54.324v108.494h-54.324z"/></clipPath><g clip-path="url(#I)"><path stroke-width="1.5" stroke-linecap="square" stroke-linejoin="round" fill="none" stroke="#000" d="m575.905 173.916 5.488-.36h5.487l5.487.718 5.488-4.304 5.487-4.304 5.487-21.16 5.487-37.66 5.488 40.17 5.487-71.372"/></g><clipPath id="J"><path transform="matrix(1 0 0 -1 0 354.894)" d="M573.436 175.688h54.324v108.494h-54.324z"/></clipPath><g clip-path="url(#J)"><path stroke-width="1.5" stroke-linecap="square" stroke-linejoin="round" fill="none" stroke="red" d="m575.905 173.557 5.488-6.456 5.487 6.456h5.487l5.488.717 5.487-5.738 5.487 5.02 5.487-6.096 5.488 1.793 5.487-4.663"/></g><path stroke-width=".8" stroke-linecap="square" stroke-miterlimit="10" fill="none" stroke="#000" d="M573.436 179.206V70.712M573.436 179.206h54.324"/><symbol id="K"><path transform="matrix(.001 0 0 .001 -.055 .207)" d="M454 280c0 64-14 115-40 151-27 36-65 54-113 54s-86-18-113-54-40-87-40-151c0-65 13-115 40-151s65-54 113-54 86 18 113 54c26 36 40 86 40 151zm90-212c0-92-21-161-62-207-42-45-105-68-190-68-32 0-61 3-89 7-28 5-56 12-82 22v87c26-14 52-24 78-31s52-11 79-11c58 0 102 16 132 46 29 31 44 77 44 139v44c-19-32-43-56-72-72S319 0 279 0c-68 0-122 25-163 76S55 195 55 280c0 84 20 152 61 203s95 77 163 77c40 0 74-8 103-24s53-40 72-72v83h90V68z"/></symbol><use xlink:href="#d" transform="matrix(16.8 0 0 -16.8 573.55 64.712)"/><use xlink:href="#o" transform="matrix(16.8 0 0 -16.8 581.903 64.93)"/><use xlink:href="#K" transform="matrix(16.8 0 0 -16.8 592.185 68.19)"/><use xlink:href="#o" transform="matrix(16.8 0 0 -16.8 602.853 64.93)"/><use xlink:href="#n" transform="matrix(16.8 0 0 -16.8 613.639 64.93)"/><use xlink:href="#f" transform="matrix(16.8 0 0 -16.8 623.315 64.712)"/><path d="M676.43 179.206h54.324V70.712H676.43z" fill="#fff"/><path stroke-width=".8" stroke-linejoin="round" fill="none" stroke="#000" d="M678.9 179.206v3.5M728.285 179.206v3.5M676.43 151.218h-3.5"/><use xlink:href="#H" transform="matrix(14 0 0 -14 652.64 156.538)"/><use xlink:href="#a" transform="matrix(14 0 0 -14 661.6 156.72)"/><path stroke-width=".8" stroke-linejoin="round" fill="none" stroke="#000" d="M676.43 119.195h-3.5"/><use xlink:href="#a" transform="matrix(14 0 0 -14 652.696 124.697)"/><use xlink:href="#b" transform="matrix(14 0 0 -14 661.446 124.697)"/><path stroke-width=".8" stroke-linejoin="round" fill="none" stroke="#000" d="M676.43 87.172h-3.5"/><symbol id="L"><path transform="translate(-.082) scale(.001)" d="M82 729h469v-42L286 0H183l249 646H82v83z"/></symbol><use xlink:href="#L" transform="matrix(14 0 0 -14 652.766 92.492)"/><use xlink:href="#a" transform="matrix(14 0 0 -14 661.6 92.674)"/><clipPath id="M"><path transform="matrix(1 0 0 -1 0 354.894)" d="M676.43 175.688h54.324v108.494H676.43z"/></clipPath><g clip-path="url(#M)"><path stroke-width="1.5" stroke-linecap="square" stroke-linejoin="round" fill="none" stroke="#000" d="M678.9 174.274h5.487l5.487-2.562 5.487 1.281 5.488-5.764 5.487-5.764 5.487-32.023 5.488-1.28 5.487 5.123 5.487-57.641"/></g><clipPath id="N"><path transform="matrix(1 0 0 -1 0 354.894)" d="M676.43 175.688h54.324v108.494H676.43z"/></clipPath><g clip-path="url(#N)"><path stroke-width="1.5" stroke-linecap="square" stroke-linejoin="round" fill="none" stroke="red" d="m678.9 171.712 5.487-15.37 5.487 14.09 5.487 3.842 5.488-1.28 5.487-26.9 5.487 23.057 5.488 1.28 5.487-10.247 5.487-1.28"/></g><path stroke-width=".8" stroke-linecap="square" stroke-miterlimit="10" fill="none" stroke="#000" d="M676.43 179.206V70.712M676.43 179.206h54.324"/><symbol id="O"><path transform="matrix(.001 0 0 .001 -.087 .013)" d="M87 729h99V286c0-78 14-135 42-169s74-51 138-51c63 0 109 17 137 51s43 91 43 169v443h99V274c0-96-24-167-71-215S458-13 366-13 204 11 157 59 87 178 87 274v455z"/></symbol><symbol id="P"><path transform="matrix(.001 0 0 .001 -.091 .207)" d="M181 82v-289H91v754h90v-83c18 32 42 56 71 72s64 24 104 24c66 0 120-27 162-79 41-53 62-122 62-208s-21-156-62-208c-42-52-96-78-162-78-40 0-75 8-104 23s-53 39-71 72zm306 191c0 66-14 117-41 155-28 38-65 57-112 57-48 0-85-19-112-57-28-38-41-89-41-155s13-118 41-156c27-38 64-56 112-56 47 0 84 18 112 56 27 38 41 90 41 156z"/></symbol><symbol id="Q"><path transform="matrix(.001 0 0 .001 -.055 .013)" d="M454 464v296h90V0h-90v82c-19-33-43-57-72-72s-63-23-103-23c-66 0-120 26-162 78S55 187 55 273s20 155 62 208c42 52 96 79 162 79 40 0 74-8 103-24s53-40 72-72zM148 273c0-66 13-118 40-156s64-56 112-56 85 18 113 56c27 38 41 90 41 156s-14 117-41 155c-28 38-65 57-113 57s-85-19-112-57-40-89-40-155z"/></symbol><use xlink:href="#O" transform="matrix(16.8 0 0 -16.8 674.71 45.893)"/><use xlink:href="#P" transform="matrix(16.8 0 0 -16.8 687.075 49.152)"/><use xlink:href="#Q" transform="matrix(16.8 0 0 -16.8 697.138 45.893)"/><use xlink:href="#e" transform="matrix(16.8 0 0 -16.8 707.89 45.893)"/><use xlink:href="#f" transform="matrix(16.8 0 0 -16.8 717.634 45.675)"/><use xlink:href="#g" transform="matrix(16.8 0 0 -16.8 724.69 45.893)"/><use xlink:href="#w" transform="matrix(16.8 0 0 -16.8 679.168 64.712)"/><use xlink:href="#x" transform="matrix(16.8 0 0 -16.8 688.9 64.712)"/><use xlink:href="#o" transform="matrix(16.8 0 0 -16.8 694.84 64.93)"/><use xlink:href="#y" transform="matrix(16.8 0 0 -16.8 704.585 64.712)"/><use xlink:href="#A" transform="matrix(16.8 0 0 -16.8 711.691 64.712)"/><use xlink:href="#z" transform="matrix(16.8 0 0 -16.8 716.361 64.712)"/><use xlink:href="#g" transform="matrix(16.8 0 0 -16.8 720.377 64.93)"/><path d="M779.424 179.206h54.325V70.712h-54.325z" fill="#fff"/><path stroke-width=".8" stroke-linejoin="round" fill="none" stroke="#000" d="M781.894 179.206v3.5M831.28 179.206v3.5M779.424 145.05h-3.5"/><use xlink:href="#c" transform="matrix(14 0 0 -14 756.152 150.37)"/><use xlink:href="#b" transform="matrix(14 0 0 -14 764.44 150.553)"/><path stroke-width=".8" stroke-linejoin="round" fill="none" stroke="#000" d="M779.424 108.52h-3.5"/><use xlink:href="#H" transform="matrix(14 0 0 -14 755.634 113.84)"/><use xlink:href="#b" transform="matrix(14 0 0 -14 764.44 114.023)"/><path stroke-width=".8" stroke-linejoin="round" fill="none" stroke="#000" d="M779.424 71.99h-3.5"/><symbol id="R"><path transform="matrix(.001 0 0 .001 -.076 .013)" d="M406 393c47-10 84-31 110-63s40-72 40-118c0-72-25-128-74-167-50-39-120-58-211-58-31 0-63 3-95 9-32 5-66 14-100 26v95c27-16 57-28 90-36 32-8 66-12 102-12 62 0 109 12 141 36s49 60 49 107c0 42-15 76-45 100s-72 37-126 37h-85v81h89c48 0 85 9 111 29 26 19 39 47 39 84s-14 66-40 86c-27 20-65 30-114 30-27 0-56-3-87-9s-65-15-102-27v88c37 10 72 18 105 23 32 5 63 8 93 8 74 0 133-17 177-51s66-80 66-138c0-40-12-74-35-102s-56-48-98-58z"/></symbol><use xlink:href="#R" transform="matrix(14 0 0 -14 755.676 77.493)"/><use xlink:href="#b" transform="matrix(14 0 0 -14 764.44 77.493)"/><clipPath id="S"><path transform="matrix(1 0 0 -1 0 354.894)" d="M779.424 175.688h54.325v108.494h-54.325z"/></clipPath><g clip-path="url(#S)"><path stroke-width="1.5" stroke-linecap="square" stroke-linejoin="round" fill="none" stroke="#000" d="M781.894 174.274h5.487l5.487-3.653 5.487 3.653 5.488-9.132 5.487-9.133 5.487-76.712 5.488 40.182 5.487 7.306 5.487-51.141"/></g><clipPath id="T"><path transform="matrix(1 0 0 -1 0 354.894)" d="M779.424 175.688h54.325v108.494h-54.325z"/></clipPath><g clip-path="url(#T)"><path stroke-width="1.5" stroke-linecap="square" stroke-linejoin="round" fill="none" stroke="red" d="m781.894 174.274 5.487-25.57 5.487 21.917 5.487 3.653H809.33l5.487-10.959 5.488-43.836 5.487 43.836 5.487 10.96"/></g><path stroke-width=".8" stroke-linecap="square" stroke-miterlimit="10" fill="none" stroke="#000" d="M779.424 179.206V70.712M779.424 179.206h54.325"/><symbol id="U"><path transform="translate(-.098) scale(.001)" d="M444 342c21-8 42-23 62-46 20-24 40-56 60-97L666 0H560l-93 187c-24 48-48 81-70 97-23 16-54 24-93 24H197V0H98v729h223c83 0 145-18 186-52 41-35 62-88 62-158 0-46-11-85-32-115-22-30-53-51-93-62zM197 648V389h124c47 0 83 11 107 33s37 54 37 97c0 42-13 74-37 96s-60 33-107 33H197z"/></symbol><use xlink:href="#U" transform="matrix(16.8 0 0 -16.8 773.733 45.675)"/><use xlink:href="#g" transform="matrix(16.8 0 0 -16.8 783.937 45.893)"/><use xlink:href="#K" transform="matrix(16.8 0 0 -16.8 794.269 49.152)"/><use xlink:href="#A" transform="matrix(16.8 0 0 -16.8 805.592 45.675)"/><use xlink:href="#p" transform="matrix(16.8 0 0 -16.8 809.59 45.893)"/><use xlink:href="#f" transform="matrix(16.8 0 0 -16.8 817.89 45.675)"/><use xlink:href="#g" transform="matrix(16.8 0 0 -16.8 824.945 45.893)"/><use xlink:href="#x" transform="matrix(16.8 0 0 -16.8 835.882 45.675)"/><use xlink:href="#w" transform="matrix(16.8 0 0 -16.8 787.944 64.712)"/><use xlink:href="#e" transform="matrix(16.8 0 0 -16.8 796.686 64.93)"/><use xlink:href="#K" transform="matrix(16.8 0 0 -16.8 806.9 68.19)"/><use xlink:href="#g" transform="matrix(16.8 0 0 -16.8 817.568 64.93)"/><path d="M58.466 309.6h54.324V201.106H58.466z" fill="#fff"/><path stroke-width=".8" stroke-linejoin="round" fill="none" stroke="#000" d="M60.935 309.6v3.5"/><symbol id="V"><path transform="translate(-.098) scale(.001)" d="M98 729h99V421l327 308h127L289 389 677 0H547L197 351V0H98v729z"/></symbol><use xlink:href="#H" transform="matrix(14 0 0 -14 52.91 327.24)"/><use xlink:href="#V" transform="matrix(14 0 0 -14 62.164 327.24)"/><path stroke-width=".8" stroke-linejoin="round" fill="none" stroke="#000" d="M110.32 309.6v3.5"/><symbol id="W"><path transform="translate(-.098) scale(.001)" d="M98 729h147l186-496 187 496h147V0h-96v640L481 140h-99L194 640V0H98v729z"/></symbol><use xlink:href="#c" transform="matrix(14 0 0 -14 101.368 327.24)"/><use xlink:href="#W" transform="matrix(14 0 0 -14 110.104 327.24)"/><use xlink:href="#O" transform="matrix(14 0 0 -14 67.244 344.97)"/><use xlink:href="#p" transform="matrix(14 0 0 -14 77.03 344.97)"/><use xlink:href="#g" transform="matrix(14 0 0 -14 84.338 344.97)"/><use xlink:href="#x" transform="matrix(14 0 0 -14 93.452 344.787)"/><use xlink:href="#p" transform="matrix(14 0 0 -14 98.688 344.97)"/><path stroke-width=".8" stroke-linejoin="round" fill="none" stroke="#000" d="M58.466 284.068h-3.5"/><use xlink:href="#H" transform="matrix(14 0 0 -14 34.675 289.389)"/><use xlink:href="#b" transform="matrix(14 0 0 -14 43.481 289.57)"/><path stroke-width=".8" stroke-linejoin="round" fill="none" stroke="#000" d="M58.466 242.452h-3.5"/><symbol id="X"><path transform="translate(-.049) scale(.001)" d="M378 643 129 254h249v389zm-26 86h124V254h104v-82H476V0h-98v172H49v95l303 462z"/></symbol><use xlink:href="#X" transform="matrix(14 0 0 -14 34.34 247.772)"/><use xlink:href="#b" transform="matrix(14 0 0 -14 43.481 247.954)"/><symbol id="Y"><path transform="translate(.002) scale(.001)" d="M-2 729h616v-83H355V0h-99v646H-2v83z"/></symbol><symbol id="Z"><path transform="translate(-.091) scale(.001)" d="M549 330V0h-90v327c0 52-11 90-31 116s-50 39-90 39c-49 0-87-16-115-47s-42-73-42-126V0H91v760h90V462c21 32 46 57 76 73 29 16 63 25 101 25 62 0 110-20 142-59s49-96 49-171z"/></symbol><use xlink:href="#Y" transform="matrix(0 -14 -14 0 26.747 296.069)"/><use xlink:href="#Z" transform="matrix(0 -14 -14 0 26.747 286.213)"/><use xlink:href="#x" transform="matrix(0 -14 -14 0 26.747 277.337)"/><use xlink:href="#o" transform="matrix(0 -14 -14 0 26.929 272.384)"/><use xlink:href="#n" transform="matrix(0 -14 -14 0 26.929 263.395)"/><use xlink:href="#K" transform="matrix(0 -14 -14 0 29.645 254.94)"/><use xlink:href="#Z" transform="matrix(0 -14 -14 0 26.747 245.545)"/><use xlink:href="#P" transform="matrix(0 -14 -14 0 29.645 236.67)"/><use xlink:href="#n" transform="scale(14) rotate(-90 9.1 7.176)"/><use xlink:href="#f" transform="matrix(0 -14 -14 0 26.747 219.8)"/><clipPath id="aa"><path transform="matrix(1 0 0 -1 0 354.894)" d="M58.466 45.294h54.324v108.493H58.466z"/></clipPath><g clip-path="url(#aa)"><path stroke-width="1.5" stroke-linecap="square" stroke-linejoin="round" fill="none" stroke="#000" d="m60.935 220.603 5.487 18.104 5.487 42.656 5.488-46.61 5.487 8.948 5.487 8.947 5.488 23.513 5.487 28.507 5.487-18.727 5.487 9.572"/></g><clipPath id="ab"><path transform="matrix(1 0 0 -1 0 354.894)" d="M58.466 45.294h54.324v108.493H58.466z"/></clipPath><g clip-path="url(#ab)"><path stroke-width="1.5" stroke-linecap="square" stroke-linejoin="round" fill="none" stroke="red" d="m60.935 259.307 5.487-20.392 5.487-32.877 5.488 49.523 5.487-15.398 5.487 13.525 5.488-28.715 5.487 12.485 5.487-15.606 5.487 36.206"/></g><path stroke-width=".8" stroke-linecap="square" stroke-miterlimit="10" fill="none" stroke="#000" d="M58.466 309.6V201.106M58.466 309.6h54.324"/><path d="M161.46 309.6h54.324V201.106H161.46z" fill="#fff"/><path stroke-width=".8" stroke-linejoin="round" fill="none" stroke="#000" d="M163.929 309.6v3.5"/><use xlink:href="#H" transform="matrix(14 0 0 -14 155.904 327.24)"/><use xlink:href="#V" transform="matrix(14 0 0 -14 165.158 327.24)"/><path stroke-width=".8" stroke-linejoin="round" fill="none" stroke="#000" d="M213.315 309.6v3.5"/><use xlink:href="#c" transform="matrix(14 0 0 -14 204.362 327.24)"/><use xlink:href="#W" transform="matrix(14 0 0 -14 213.098 327.24)"/><use xlink:href="#O" transform="matrix(14 0 0 -14 170.238 344.97)"/><use xlink:href="#p" transform="matrix(14 0 0 -14 180.024 344.97)"/><use xlink:href="#g" transform="matrix(14 0 0 -14 187.332 344.97)"/><use xlink:href="#x" transform="matrix(14 0 0 -14 196.446 344.787)"/><use xlink:href="#p" transform="matrix(14 0 0 -14 201.682 344.97)"/><path stroke-width=".8" stroke-linejoin="round" fill="none" stroke="#000" d="M161.46 272.172h-3.5"/><use xlink:href="#c" transform="matrix(14 0 0 -14 138.187 277.492)"/><use xlink:href="#b" transform="matrix(14 0 0 -14 146.475 277.674)"/><path stroke-width=".8" stroke-linejoin="round" fill="none" stroke="#000" d="M161.46 215.16h-3.5"/><use xlink:href="#H" transform="matrix(14 0 0 -14 137.67 220.48)"/><use xlink:href="#b" transform="matrix(14 0 0 -14 146.475 220.662)"/><clipPath id="ac"><path transform="matrix(1 0 0 -1 0 354.894)" d="M161.46 45.294h54.324v108.493H161.46z"/></clipPath><g clip-path="url(#ac)"><path stroke-width="1.5" stroke-linecap="square" stroke-linejoin="round" fill="none" stroke="#000" d="m163.929 211.739 5.487 9.122 5.488 59.292 5.487-64.993 5.487 17.673 5.487 17.674 5.488 23.375 5.487 30.786 5.487-17.673 5.488.57"/></g><clipPath id="ad"><path transform="matrix(1 0 0 -1 0 354.894)" d="M161.46 45.294h54.324v108.493H161.46z"/></clipPath><g clip-path="url(#ad)"><path stroke-width="1.5" stroke-linecap="square" stroke-linejoin="round" fill="none" stroke="red" d="m163.929 248.797 5.487-27.366 5.488-11.973 5.487 33.638 5.487-19.385 5.487 19.955 5.488-37.628 5.487 20.524 5.487-15.963 5.488 39.338"/></g><path stroke-width=".8" stroke-linecap="square" stroke-miterlimit="10" fill="none" stroke="#000" d="M161.46 309.6V201.106M161.46 309.6h54.324"/><path d="M264.454 309.6h54.324V201.106h-54.324z" fill="#fff"/><path stroke-width=".8" stroke-linejoin="round" fill="none" stroke="#000" d="M266.923 309.6v3.5"/><use xlink:href="#H" transform="matrix(14 0 0 -14 258.898 327.24)"/><use xlink:href="#V" transform="matrix(14 0 0 -14 268.152 327.24)"/><path stroke-width=".8" stroke-linejoin="round" fill="none" stroke="#000" d="M316.309 309.6v3.5"/><use xlink:href="#c" transform="matrix(14 0 0 -14 307.356 327.24)"/><use xlink:href="#W" transform="matrix(14 0 0 -14 316.092 327.24)"/><use xlink:href="#O" transform="matrix(14 0 0 -14 273.232 344.97)"/><use xlink:href="#p" transform="matrix(14 0 0 -14 283.018 344.97)"/><use xlink:href="#g" transform="matrix(14 0 0 -14 290.326 344.97)"/><use xlink:href="#x" transform="matrix(14 0 0 -14 299.44 344.787)"/><use xlink:href="#p" transform="matrix(14 0 0 -14 304.676 344.97)"/><path stroke-width=".8" stroke-linejoin="round" fill="none" stroke="#000" d="M264.454 283.185h-3.5"/><use xlink:href="#c" transform="matrix(14 0 0 -14 241.181 288.505)"/><use xlink:href="#b" transform="matrix(14 0 0 -14 249.47 288.687)"/><path stroke-width=".8" stroke-linejoin="round" fill="none" stroke="#000" d="M264.454 234.357h-3.5"/><use xlink:href="#H" transform="matrix(14 0 0 -14 240.663 239.678)"/><use xlink:href="#b" transform="matrix(14 0 0 -14 249.47 239.86)"/><clipPath id="ae"><path transform="matrix(1 0 0 -1 0 354.894)" d="M264.454 45.294h54.324v108.493h-54.324z"/></clipPath><g clip-path="url(#ae)"><path stroke-width="1.5" stroke-linecap="square" stroke-linejoin="round" fill="none" stroke="#000" d="m266.923 210.92 5.487 24.414 5.488 41.015 5.487-55.663 5.487 14.16 5.488 14.16 5.487 32.714 5.487 22.948 5.487-15.624 5.488 7.324"/></g><clipPath id="af"><path transform="matrix(1 0 0 -1 0 354.894)" d="M264.454 45.294h54.324v108.493h-54.324z"/></clipPath><g clip-path="url(#af)"><path stroke-width="1.5" stroke-linecap="square" stroke-linejoin="round" fill="none" stroke="red" d="m266.923 255.841 5.487-16.6 5.488-33.203 5.487 46.874 5.487-29.785 5.488 30.761 5.487-41.503 5.487 31.25 5.487-36.62 5.488 44.432"/></g><path stroke-width=".8" stroke-linecap="square" stroke-miterlimit="10" fill="none" stroke="#000" d="M264.454 309.6V201.106M264.454 309.6h54.324"/><path d="M367.448 309.6h54.324V201.106h-54.324z" fill="#fff"/><path stroke-width=".8" stroke-linejoin="round" fill="none" stroke="#000" d="M369.917 309.6v3.5"/><use xlink:href="#H" transform="matrix(14 0 0 -14 361.892 327.24)"/><use xlink:href="#V" transform="matrix(14 0 0 -14 371.146 327.24)"/><path stroke-width=".8" stroke-linejoin="round" fill="none" stroke="#000" d="M419.303 309.6v3.5"/><use xlink:href="#c" transform="matrix(14 0 0 -14 410.35 327.24)"/><use xlink:href="#W" transform="matrix(14 0 0 -14 419.087 327.24)"/><use xlink:href="#O" transform="matrix(14 0 0 -14 376.226 344.97)"/><use xlink:href="#p" transform="matrix(14 0 0 -14 386.012 344.97)"/><use xlink:href="#g" transform="matrix(14 0 0 -14 393.32 344.97)"/><use xlink:href="#x" transform="matrix(14 0 0 -14 402.434 344.787)"/><use xlink:href="#p" transform="matrix(14 0 0 -14 407.67 344.97)"/><path stroke-width=".8" stroke-linejoin="round" fill="none" stroke="#000" d="M367.448 293.71h-3.5"/><use xlink:href="#a" transform="matrix(14 0 0 -14 352.62 299.212)"/><path stroke-width=".8" stroke-linejoin="round" fill="none" stroke="#000" d="M367.448 259.463h-3.5"/><use xlink:href="#c" transform="matrix(14 0 0 -14 344.175 264.783)"/><use xlink:href="#b" transform="matrix(14 0 0 -14 352.463 264.965)"/><path stroke-width=".8" stroke-linejoin="round" fill="none" stroke="#000" d="M367.448 225.216h-3.5"/><use xlink:href="#c" transform="matrix(14 0 0 -14 344.175 230.536)"/><use xlink:href="#a" transform="matrix(14 0 0 -14 352.617 230.718)"/><clipPath id="ag"><path transform="matrix(1 0 0 -1 0 354.894)" d="M367.448 45.294h54.324v108.493h-54.324z"/></clipPath><g clip-path="url(#ag)"><path stroke-width="1.5" stroke-linecap="square" stroke-linejoin="round" fill="none" stroke="#000" d="m369.917 206.038 5.488 42.466 5.487 23.973 5.487-35.617 5.487 9.246 5.488 9.247 5.487 25.343 5.487 23.972 5.488-12.328 5.487 6.164"/></g><clipPath id="ah"><path transform="matrix(1 0 0 -1 0 354.894)" d="M367.448 45.294h54.324v108.493h-54.324z"/></clipPath><g clip-path="url(#ah)"><path stroke-width="1.5" stroke-linecap="square" stroke-linejoin="round" fill="none" stroke="red" d="m369.917 252.613 5.488-12.328 5.487-17.124 5.487 32.192 5.487-22.603 5.488 22.603 5.487-37.671 5.487 19.863 5.488-23.973 5.487 35.617"/></g><path stroke-width=".8" stroke-linecap="square" stroke-miterlimit="10" fill="none" stroke="#000" d="M367.448 309.6V201.106M367.448 309.6h54.324"/><path d="M470.442 309.6h54.324V201.106h-54.324z" fill="#fff"/><path stroke-width=".8" stroke-linejoin="round" fill="none" stroke="#000" d="M472.911 309.6v3.5"/><use xlink:href="#H" transform="matrix(14 0 0 -14 464.886 327.24)"/><use xlink:href="#V" transform="matrix(14 0 0 -14 474.14 327.24)"/><path stroke-width=".8" stroke-linejoin="round" fill="none" stroke="#000" d="M522.297 309.6v3.5"/><use xlink:href="#c" transform="matrix(14 0 0 -14 513.345 327.24)"/><use xlink:href="#W" transform="matrix(14 0 0 -14 522.08 327.24)"/><use xlink:href="#O" transform="matrix(14 0 0 -14 479.22 344.97)"/><use xlink:href="#p" transform="matrix(14 0 0 -14 489.007 344.97)"/><use xlink:href="#g" transform="matrix(14 0 0 -14 496.315 344.97)"/><use xlink:href="#x" transform="matrix(14 0 0 -14 505.429 344.787)"/><use xlink:href="#p" transform="matrix(14 0 0 -14 510.665 344.97)"/><path stroke-width=".8" stroke-linejoin="round" fill="none" stroke="#000" d="M470.442 282.337h-3.5"/><use xlink:href="#H" transform="matrix(14 0 0 -14 455.558 287.657)"/><path stroke-width=".8" stroke-linejoin="round" fill="none" stroke="#000" d="M470.442 245.118h-3.5"/><use xlink:href="#X" transform="matrix(14 0 0 -14 455.222 250.438)"/><path stroke-width=".8" stroke-linejoin="round" fill="none" stroke="#000" d="M470.442 207.899h-3.5"/><symbol id="ai"><path transform="matrix(.001 0 0 .001 -.07 .013)" d="M330 404c-44 0-79-16-105-46s-39-72-39-124c0-53 13-95 39-125s61-45 105-45 79 15 105 45 39 72 39 125c0 52-13 94-39 124s-61 46-105 46zm196 309v-90c-25 12-50 21-75 27-26 6-51 9-75 9-66 0-116-22-150-66s-54-111-58-199c19 28 43 50 72 65s61 23 96 23c73 0 131-23 173-67s64-105 64-181c0-75-23-135-67-180S403-13 330-13c-84 0-149 32-193 96-45 64-67 158-67 281 0 115 27 207 82 275 54 68 128 103 220 103 24 0 49-3 75-7 25-5 51-12 79-22z"/></symbol><use xlink:href="#ai" transform="matrix(14 0 0 -14 455.516 213.401)"/><clipPath id="aj"><path transform="matrix(1 0 0 -1 0 354.894)" d="M470.442 45.294h54.324v108.493h-54.324z"/></clipPath><g clip-path="url(#aj)"><path stroke-width="1.5" stroke-linecap="square" stroke-linejoin="round" fill="none" stroke="#000" d="m472.911 206.038 5.488 63.272 5.487 5.583 5.487-11.166 5.488 1.861 5.487 1.861 5.487 18.61 5.487 18.61h5.488l5.487-9.305"/></g><clipPath id="ak"><path transform="matrix(1 0 0 -1 0 354.894)" d="M470.442 45.294h54.324v108.493h-54.324z"/></clipPath><g clip-path="url(#ak)"><path stroke-width="1.5" stroke-linecap="square" stroke-linejoin="round" fill="none" stroke="red" d="m472.911 269.31 5.488-9.304 5.487-33.498 5.487 44.663 5.488-44.663 5.487 37.22 5.487-7.444 5.487-18.61 5.488 1.861 5.487 18.61"/></g><path stroke-width=".8" stroke-linecap="square" stroke-miterlimit="10" fill="none" stroke="#000" d="M470.442 309.6V201.106M470.442 309.6h54.324"/><path d="M573.436 309.6h54.324V201.106h-54.324z" fill="#fff"/><path stroke-width=".8" stroke-linejoin="round" fill="none" stroke="#000" d="M575.905 309.6v3.5"/><use xlink:href="#H" transform="matrix(14 0 0 -14 567.88 327.24)"/><use xlink:href="#V" transform="matrix(14 0 0 -14 577.135 327.24)"/><path stroke-width=".8" stroke-linejoin="round" fill="none" stroke="#000" d="M625.291 309.6v3.5"/><use xlink:href="#c" transform="matrix(14 0 0 -14 616.339 327.24)"/><use xlink:href="#W" transform="matrix(14 0 0 -14 625.075 327.24)"/><use xlink:href="#O" transform="matrix(14 0 0 -14 582.215 344.97)"/><use xlink:href="#p" transform="matrix(14 0 0 -14 592 344.97)"/><use xlink:href="#g" transform="matrix(14 0 0 -14 599.309 344.97)"/><use xlink:href="#x" transform="matrix(14 0 0 -14 608.423 344.787)"/><use xlink:href="#p" transform="matrix(14 0 0 -14 613.659 344.97)"/><path stroke-width=".8" stroke-linejoin="round" fill="none" stroke="#000" d="M573.436 282.562h-3.5"/><symbol id="al"><path transform="translate(-.107) scale(.001)" d="M107 124h103V0H107v124z"/></symbol><use xlink:href="#H" transform="matrix(14 0 0 -14 545.193 287.882)"/><use xlink:href="#al" transform="matrix(14 0 0 -14 554.573 287.882)"/><use xlink:href="#a" transform="matrix(14 0 0 -14 558.605 288.064)"/><path stroke-width=".8" stroke-linejoin="round" fill="none" stroke="#000" d="M573.436 240.048h-3.5"/><use xlink:href="#a" transform="matrix(14 0 0 -14 545.249 245.55)"/><use xlink:href="#al" transform="matrix(14 0 0 -14 554.573 245.369)"/><use xlink:href="#b" transform="matrix(14 0 0 -14 558.45 245.55)"/><clipPath id="am"><path transform="matrix(1 0 0 -1 0 354.894)" d="M573.436 45.294h54.324v108.493h-54.324z"/></clipPath><g clip-path="url(#am)"><path stroke-width="1.5" stroke-linecap="square" stroke-linejoin="round" fill="none" stroke="#000" d="m575.905 214.54 5.488 30.61 5.487 44.214 5.487-49.316 5.488 11.904 5.487 11.904 5.487 25.508 5.487 15.304 5.488-17.005 5.487 17.005"/></g><clipPath id="an"><path transform="matrix(1 0 0 -1 0 354.894)" d="M573.436 45.294h54.324v108.493h-54.324z"/></clipPath><g clip-path="url(#an)"><path stroke-width="1.5" stroke-linecap="square" stroke-linejoin="round" fill="none" stroke="red" d="m575.905 238.348 5.488 20.406 5.487-32.31 5.487 34.01 5.488-13.604 5.487 25.508 5.487-39.112 5.487 17.006 5.488-44.214 5.487 61.219"/></g><path stroke-width=".8" stroke-linecap="square" stroke-miterlimit="10" fill="none" stroke="#000" d="M573.436 309.6V201.106M573.436 309.6h54.324"/><path d="M676.43 309.6h54.324V201.106H676.43z" fill="#fff"/><path stroke-width=".8" stroke-linejoin="round" fill="none" stroke="#000" d="M678.9 309.6v3.5"/><use xlink:href="#H" transform="matrix(14 0 0 -14 670.875 327.24)"/><use xlink:href="#V" transform="matrix(14 0 0 -14 680.129 327.24)"/><path stroke-width=".8" stroke-linejoin="round" fill="none" stroke="#000" d="M728.285 309.6v3.5"/><use xlink:href="#c" transform="matrix(14 0 0 -14 719.333 327.24)"/><use xlink:href="#W" transform="matrix(14 0 0 -14 728.069 327.24)"/><use xlink:href="#O" transform="matrix(14 0 0 -14 685.209 344.97)"/><use xlink:href="#p" transform="matrix(14 0 0 -14 694.995 344.97)"/><use xlink:href="#g" transform="matrix(14 0 0 -14 702.303 344.97)"/><use xlink:href="#x" transform="matrix(14 0 0 -14 711.417 344.787)"/><use xlink:href="#p" transform="matrix(14 0 0 -14 716.653 344.97)"/><path stroke-width=".8" stroke-linejoin="round" fill="none" stroke="#000" d="M676.43 270.852h-3.5"/><use xlink:href="#H" transform="matrix(14 0 0 -14 661.546 276.173)"/><path stroke-width=".8" stroke-linejoin="round" fill="none" stroke="#000" d="M676.43 214.492h-3.5"/><use xlink:href="#X" transform="matrix(14 0 0 -14 661.21 219.812)"/><clipPath id="ao"><path transform="matrix(1 0 0 -1 0 354.894)" d="M676.43 45.294h54.324v108.493H676.43z"/></clipPath><g clip-path="url(#ao)"><path stroke-width="1.5" stroke-linecap="square" stroke-linejoin="round" fill="none" stroke="#000" d="m678.9 237.036 5.487 28.18 5.487 25.362 5.487-30.998 5.488-2.818 5.487-2.818 5.487 45.088 5.488-25.362 5.487-45.088 5.487 76.086"/></g><clipPath id="ap"><path transform="matrix(1 0 0 -1 0 354.894)" d="M676.43 45.294h54.324v108.493H676.43z"/></clipPath><g clip-path="url(#ap)"><path stroke-width="1.5" stroke-linecap="square" stroke-linejoin="round" fill="none" stroke="red" d="m678.9 282.124 5.487-22.544 5.487-16.908 5.487 22.544 5.488-28.18 5.487 36.634 5.487-5.636 5.488-61.996 5.487 33.816 5.487 39.452"/></g><path stroke-width=".8" stroke-linecap="square" stroke-miterlimit="10" fill="none" stroke="#000" d="M676.43 309.6V201.106M676.43 309.6h54.324"/><path d="M779.424 309.6h54.325V201.106h-54.325z" fill="#fff"/><path stroke-width=".8" stroke-linejoin="round" fill="none" stroke="#000" d="M781.894 309.6v3.5"/><use xlink:href="#H" transform="matrix(14 0 0 -14 773.869 327.24)"/><use xlink:href="#V" transform="matrix(14 0 0 -14 783.123 327.24)"/><path stroke-width=".8" stroke-linejoin="round" fill="none" stroke="#000" d="M831.28 309.6v3.5"/><use xlink:href="#c" transform="matrix(14 0 0 -14 822.327 327.24)"/><use xlink:href="#W" transform="matrix(14 0 0 -14 831.063 327.24)"/><use xlink:href="#O" transform="matrix(14 0 0 -14 788.203 344.97)"/><use xlink:href="#p" transform="matrix(14 0 0 -14 797.989 344.97)"/><use xlink:href="#g" transform="matrix(14 0 0 -14 805.297 344.97)"/><use xlink:href="#x" transform="matrix(14 0 0 -14 814.41 344.787)"/><use xlink:href="#p" transform="matrix(14 0 0 -14 819.647 344.97)"/><path stroke-width=".8" stroke-linejoin="round" fill="none" stroke="#000" d="M779.424 281.908h-3.5"/><use xlink:href="#c" transform="matrix(14 0 0 -14 765.058 287.228)"/><path stroke-width=".8" stroke-linejoin="round" fill="none" stroke="#000" d="M779.424 243.973h-3.5"/><use xlink:href="#H" transform="matrix(14 0 0 -14 764.54 249.293)"/><path stroke-width=".8" stroke-linejoin="round" fill="none" stroke="#000" d="M779.424 206.038h-3.5"/><use xlink:href="#R" transform="matrix(14 0 0 -14 764.582 211.54)"/><clipPath id="aq"><path transform="matrix(1 0 0 -1 0 354.894)" d="M779.424 45.294h54.325v108.493h-54.325z"/></clipPath><g clip-path="url(#aq)"><path stroke-width="1.5" stroke-linecap="square" stroke-linejoin="round" fill="none" stroke="#000" d="m781.894 247.766 5.487 26.555 5.487-30.348 5.487 22.76 5.488 11.381 5.487 11.38 5.487 7.587 5.488 7.587 5.487-56.902 5.487 53.109"/></g><clipPath id="ar"><path transform="matrix(1 0 0 -1 0 354.894)" d="M779.424 45.294h54.325v108.493h-54.325z"/></clipPath><g clip-path="url(#ar)"><path stroke-width="1.5" stroke-linecap="square" stroke-linejoin="round" fill="none" stroke="red" d="m781.894 255.353 5.487-18.967 5.487-15.174 5.487-15.174 5.488 34.141 5.487 45.522 5.487-64.49 5.488 30.349 5.487-34.142 5.487 45.522"/></g><path stroke-width=".8" stroke-linecap="square" stroke-miterlimit="10" fill="none" stroke="#000" d="M779.424 309.6V201.106M779.424 309.6h54.325"/><path d="M271.663 31.947h304.906c1.866 0 2.8-.933 2.8-2.8V10c0-1.867-.934-2.8-2.8-2.8H271.663c-1.867 0-2.8.933-2.8 2.8v19.147c0 1.867.933 2.8 2.8 2.8z" fill="#fff" fill-opacity=".8"/><path stroke-miterlimit="10" fill="none" stroke="#d5d6d5" stroke-opacity=".8" d="M271.663 31.947h304.906c1.866 0 2.8-.933 2.8-2.8V10c0-1.867-.934-2.8-2.8-2.8H271.663c-1.867 0-2.8.933-2.8 2.8v19.147c0 1.867.933 2.8 2.8 2.8z"/><path stroke-width="1.5" stroke-linecap="square" stroke-linejoin="round" fill="none" stroke="#000" d="M274.462 18.54h28"/><use xlink:href="#W" transform="matrix(14 0 0 -14 315.035 23.44)"/><use xlink:href="#o" transform="matrix(14 0 0 -14 326.514 23.623)"/><use xlink:href="#h" transform="matrix(14 0 0 -14 335.587 23.44)"/><use xlink:href="#o" transform="matrix(14 0 0 -14 343.959 23.623)"/><use xlink:href="#H" transform="matrix(14 0 0 -14 352.779 23.44)"/><use xlink:href="#W" transform="matrix(14 0 0 -14 362.033 23.44)"/><use xlink:href="#A" transform="matrix(14 0 0 -14 374.058 23.44)"/><use xlink:href="#i" transform="matrix(14 0 0 -14 377.404 23.623)"/><use xlink:href="#x" transform="matrix(14 0 0 -14 385.608 23.44)"/><use xlink:href="#o" transform="matrix(14 0 0 -14 390.562 23.623)"/><path stroke-width="1.5" stroke-linecap="square" stroke-linejoin="round" fill="none" stroke="red" d="M426.381 18.54h28"/><symbol id="as"><path transform="translate(-.106) scale(.001)" d="M460 627V355h272v-83H460V0h-82v272H106v83h272v272h82z"/></symbol><use xlink:href="#W" transform="matrix(14 0 0 -14 466.953 23.44)"/><use xlink:href="#o" transform="matrix(14 0 0 -14 478.433 23.623)"/><use xlink:href="#h" transform="matrix(14 0 0 -14 487.505 23.44)"/><use xlink:href="#o" transform="matrix(14 0 0 -14 495.877 23.623)"/><use xlink:href="#H" transform="matrix(14 0 0 -14 504.697 23.44)"/><use xlink:href="#W" transform="matrix(14 0 0 -14 513.951 23.44)"/><use xlink:href="#A" transform="matrix(14 0 0 -14 525.977 23.44)"/><use xlink:href="#i" transform="matrix(14 0 0 -14 529.323 23.623)"/><use xlink:href="#x" transform="matrix(14 0 0 -14 537.527 23.44)"/><use xlink:href="#o" transform="matrix(14 0 0 -14 542.48 23.623)"/><use xlink:href="#as" transform="matrix(14 0 0 -14 551.762 23.44)"/><use xlink:href="#as" transform="matrix(14 0 0 -14 563.494 23.44)"/></svg>